<svg preserveAspectRatio="xMidYMid meet" data-bbox="0.5 0.8 169 26.5" viewBox="0.5 0.8 169 26.5" xmlns="http://www.w3.org/2000/svg" data-type="color" role="presentation" aria-hidden="true" aria-labelledby="svgcid-2pccxv4mbx23"><defs><style>#comp-kkr2xc80 svg [data-color="1"] {fill: #FFFFFF;}</style></defs><title id="svgcid-2pccxv4mbx23"></title>
    <g>
        <path d="M13.9 14c1.7-1.7 3.9-3.7 6.1-3.7 2.2 0 4.4 2 6.1 3.7-1.7 1.7-3.9 3.7-6.1 3.7-2.2 0-4.4-2-6.1-3.7z" fill="#ffffff" data-color="1"></path>
        <path d="M48.3 12.1c0-1 1-1.8 3.1-1.8 1.3 0 2.6.3 3.8 1l1-1.9c-1.2-.7-3.1-1.2-4.8-1.2-3.4 0-5.5 1.6-5.5 4 0 5.3 8.4 2.7 8.4 5.7 0 1.1-.9 1.8-3.1 1.8-1.7 0-3.5-.6-4.7-1.4l-1 1.9c1.1.9 3.3 1.6 5.5 1.6 3.5 0 5.7-1.5 5.7-3.9 0-5.3-8.4-2.7-8.4-5.8z" fill="#ffffff" data-color="2"></path>
        <path d="M65.1 10.3c1.5 0 2.8.6 3.6 1.9l1.8-1.2c-1-1.8-3-2.8-5.4-2.8-4.1 0-7 2.8-7 6.8s2.9 6.8 7 6.8c2.4 0 4.3-1 5.4-2.9l-1.8-1.2c-.8 1.3-2.1 1.9-3.6 1.9-2.6 0-4.6-1.8-4.6-4.7 0-2.8 2-4.6 4.6-4.6z" fill="#ffffff" data-color="2"></path>
        <path d="M78.1 8.2c-2.1 0-4.1.6-5.5 1.7l1 1.8c1-.9 2.6-1.4 4.2-1.4 2.4 0 3.6 1.2 3.6 3.2v.5h-3.8c-4 0-5.3 1.8-5.3 3.9 0 2.3 1.9 3.9 4.9 3.9 2.1 0 3.6-.7 4.3-1.9v1.8h2.3v-8.1c0-3.7-2-5.4-5.7-5.4zm3.3 9.3c-.6 1.5-2 2.4-3.8 2.4-1.8 0-2.9-.8-2.9-2.1 0-1.1.7-2 3.1-2h3.7v1.7z" fill="#ffffff" data-color="2"></path>
        <path fill="#ffffff" d="M89.2 3v18.7h-2.4V3h2.4z" data-color="2"></path>
        <path d="M98.2 8.2c-3.8 0-6.7 2.8-6.7 6.8s2.9 6.8 7.1 6.8c2.2 0 4-.7 5.2-2.1l-1.3-1.6c-1 1.1-2.3 1.6-3.8 1.6-2.6 0-4.5-1.6-4.8-3.9h10.8c0-.2.1-.5.1-.7 0-4.2-2.7-6.9-6.6-6.9zM94 14c.3-2.3 1.9-3.8 4.3-3.8 2.3 0 4 1.6 4.3 3.8H94z" fill="#ffffff" data-color="2"></path>
        <path d="M136.2 10.3c1.5 0 2.8.6 3.6 1.9l1.8-1.2c-1-1.8-3-2.8-5.4-2.8-4.1 0-7 2.8-7 6.8s2.9 6.8 7 6.8c2.4 0 4.3-1 5.4-2.9l-1.8-1.2c-.8 1.3-2.1 1.9-3.6 1.9-2.6 0-4.6-1.8-4.6-4.7.1-2.8 2-4.6 4.6-4.6z" fill="#ffffff" data-color="2"></path>
        <path d="M153.7 15.2c0 2.9-1.6 4.4-4.1 4.4-2.3 0-3.6-1.3-3.6-3.9V8.3h-2.4V16c0 3.9 2.3 5.8 5.7 5.8 1.9 0 3.5-.8 4.5-2.1v2h2.3V8.3h-2.4v6.9z" fill="#ffffff" data-color="2"></path>
        <path d="M161.1 12.1c0-1 1-1.8 3.1-1.8 1.3 0 2.6.3 3.8 1l1-1.9c-1.2-.7-3.1-1.2-4.8-1.2-3.4 0-5.5 1.6-5.5 4 0 5.3 8.4 2.7 8.4 5.7 0 1.1-.9 1.8-3.1 1.8-1.7 0-3.5-.6-4.7-1.4l-1 1.9c1.1.9 3.3 1.6 5.5 1.6 3.5 0 5.7-1.5 5.7-3.9 0-5.3-8.4-2.7-8.4-5.8z" fill="#ffffff" data-color="2"></path>
        <path d="M107.9 7.1v1.2h-2.3v2h2.3v11.3h2.4V10.3h2.5v-2h-2.5V7.1c0-1.5.7-2.3 2.1-2.3h.4v-2h-.5c-2.8 0-4.4 1.7-4.4 4.3z" fill="#ffffff" data-color="2"></path>
        <path d="M120.3 8.2c-3.7 0-6.8 3-6.8 6.8s3 6.8 6.8 6.8c3.7 0 6.8-3 6.8-6.8s-3-6.8-6.8-6.8zm.1 11.3c-2.5 0-4.6-2-4.6-4.6 0-2.6 2.1-4.6 4.6-4.6 2.5 0 4.6 2 4.6 4.6 0 2.6-2.1 4.6-4.6 4.6z" fill="#ffffff" data-color="2"></path>
        <path d="M26.8 18.7c-2.3 1.7-3.9 2.6-5 3.1-.4.2-.7.3-1.1.3h-.4c-.7 0-1.4-.1-2-.4-1.1-.5-2.7-1.5-5-3.2-.3-.2-.6-.4-.9-.7-1.2-.9-8.5-7.2-8.5-7.2L.5 14l.3.3.3.3.8.8c.2.2.4.4.6.5l.7.7.3.3c.6.5 1.1 1 1.7 1.5 4.6 4 9.9 8.1 13.6 8.8.4.1.8.1 1.2.1h.7c.2 0 .3-.1.5-.1.1 0 .2 0 .2-.1.2 0 .4-.1.5-.2 3.1-1 7.1-3.8 10.8-6.9l-3.6-3c-.8.6-1.6 1.2-2.3 1.7z" fill="#ffffff" data-color="2"></path>
        <path d="M38.2 12.7c-.2-.2-.4-.4-.6-.5l-.7-.7-.3-.3c-.5-.5-1.1-1-1.7-1.5-4.6-4-10-8.1-13.6-8.8-.4-.1-.8-.1-1.2-.1h-.7c-.2 0-.3.1-.5.1-.1 0-.2 0-.2.1-.2 0-.4.1-.5.2-3.1 1-7.1 3.8-10.8 6.9l3.8 3.2c.7-.6 1.5-1.2 2.3-1.8 2.3-1.7 3.9-2.6 5-3.1.4-.2.7-.3 1.1-.3h.4c.7 0 1.4.1 2 .4 1.1.5 2.7 1.5 5 3.2 1.2.9 4.8 4 5 4.1.1.1 4.5 3.8 4.5 3.8l3.3-3.1-.5-.5c-.6-.8-.9-1-1.1-1.3z" fill="#ffffff" data-color="2"></path>
    </g>
</svg>